# xmcd
#
# Track frame offsets:
#	150
#	13941
#	26849
#	43745
#	62815
#	80097
#	97614
#	113653
#	129992
#	153148
#	170080
#	190651
#	205632
#	222119
#	247707
#	266006
#	284706
#	300514
#
# Disc length: 4357 seconds
#
# Revision: 0
# Processed by: cddbd v1.5.1PL0 Copyright (c) Steve Scherf et al.
# Submitted via: audiograbber 1.83.01
#
DISCID=f0110312
DTITLE=Various Artist - For The Record Volume 3 1980-1984 [Disc 2]
DYEAR=2002
DGENRE=Rock
TTITLE0=The Pretenders - Brass In Pocket
TTITLE1=Split Enz - One Step Ahead
TTITLE2=Eurythmics - Who's That Girl
TTITLE3=Dragon - Rain
TTITLE4=Corey Heart - Sunglasses At Night
TTITLE5=Real Life - Send Me An Angel
TTITLE6=Mondo Rock - Cool World
TTITLE7=Jimmy Barnes - No Second Prize
TTITLE8=Hall and Oates - I Can't Go For That (No Can Do)
TTITLE9=Men At Work - Overkill
TTITLE10=XTC - Senses Working Overtime
TTITLE11=REO Speedwagon - Keep On Loving You
TTITLE12=Little Heroes - One Perfect Day
TTITLE13=Spandau Ballet - True
TTITLE14=Joe Jackson - Real Men
TTITLE15=Mi Sex - Blue Day
TTITLE16=Tears For Fears - Mad World
TTITLE17=The Motels - Total Control
EXTD=
EXTT0=
EXTT1=
EXTT2=
EXTT3=
EXTT4=
EXTT5=
EXTT6=
EXTT7=
EXTT8=
EXTT9=
EXTT10=
EXTT11=
EXTT12=
EXTT13=
EXTT14=
EXTT15=
EXTT16=
EXTT17=
PLAYORDER=
